<svg id="Flat" height="512" viewBox="0 0 512 512" width="512" xmlns="http://www.w3.org/2000/svg"><path d="m256 496c-31.12 0-59.83-25.811-80.839-72.679-20.095-44.821-31.161-104.248-31.161-167.321s11.066-122.495 31.161-167.321c21.009-46.868 49.719-72.679 80.839-72.679s59.83 25.811 80.839 72.679c20.095 44.826 31.161 104.248 31.161 167.321s-11.066 122.5-31.161 167.321c-21.009 46.868-49.719 72.679-80.839 72.679zm0-464c-24.084 0-48.227 23.044-66.239 63.224-19.192 42.812-29.761 99.91-29.761 160.776s10.569 117.964 29.761 160.776c18.012 40.18 42.155 63.224 66.239 63.224s48.227-23.044 66.239-63.224c19.192-42.812 29.761-99.91 29.761-160.776s-10.569-117.964-29.761-160.776c-18.012-40.18-42.155-63.224-66.239-63.224z" fill="#3397e8"/><path d="m394.82 424.006a229.808 229.808 0 0 1 -40.273-3.866c-52.163-9.342-111.683-34.623-167.6-71.187-41.469-27.119-77.789-58.445-105.035-90.593-27.011-31.87-43.793-62.951-48.531-89.882-3.633-20.653-.208-38.152 10.183-52.011 19.185-25.584 59.636-34.322 113.889-24.607 52.163 9.342 111.683 34.623 167.6 71.187 41.469 27.119 77.789 58.445 105.035 90.593 27.011 31.87 43.793 62.951 48.531 89.881 3.633 20.654.208 38.153-10.183 52.012-14.076 18.767-39.596 28.473-73.616 28.473zm-277.41-319.976c-28.715 0-50.185 7.556-61.04 22.035-7.633 10.179-10.064 23.517-7.227 39.641 8.939 50.8 66.469 117.477 146.565 169.856 54.154 35.414 111.565 59.857 161.659 68.828 47.3 8.471 83.12 1.745 98.263-18.455 7.633-10.179 10.064-23.517 7.227-39.641-8.939-50.8-66.469-117.477-146.565-169.856-54.154-35.414-111.565-59.857-161.659-68.828a212.664 212.664 0 0 0 -37.223-3.58z" fill="#1261a0"/><path d="m117.18 424.006c-34.025 0-59.538-9.7-73.612-28.473-10.391-13.859-13.816-31.358-10.183-52.012 4.738-26.93 21.52-58.011 48.531-89.881 27.246-32.148 63.566-63.474 105.035-90.593 55.913-36.564 115.433-61.845 167.6-71.187 54.259-9.716 94.7-.978 113.885 24.607 10.391 13.859 13.816 31.358 10.183 52.011-4.738 26.931-21.52 58.012-48.531 89.882-27.246 32.148-63.566 63.474-105.035 90.593-55.913 36.564-115.433 61.845-167.6 71.187a229.8 229.8 0 0 1 -40.273 3.866zm74.15-254.263 4.378 6.695c-80.096 52.379-137.626 119.052-146.565 169.856-2.837 16.124-.406 29.462 7.227 39.641 15.144 20.2 50.96 26.926 98.263 18.455 50.094-8.971 107.5-33.414 161.659-68.828 80.1-52.379 137.626-119.052 146.565-169.856 2.837-16.124.406-29.462-7.227-39.641-15.144-20.2-50.96-26.926-98.263-18.455-50.094 8.971-107.505 33.414-161.659 68.828z" fill="#2978b8"/><circle cx="256" cy="256" fill="#eb423f" r="56"/><g fill="#f7b030"><circle cx="64" cy="296" r="24"/><circle cx="384" cy="416" r="24"/><circle cx="312" cy="64" r="24"/></g></svg>