<?xml version="1.0" encoding="iso-8859-1"?>
<!-- Generator: Adobe Illustrator 19.0.0, SVG Export Plug-In . SVG Version: 6.00 Build 0)  -->
<svg version="1.1" id="Capa_1" xmlns="http://www.w3.org/2000/svg" xmlns:xlink="http://www.w3.org/1999/xlink" x="0px" y="0px"
	 viewBox="0 0 512.009 512.009" style="enable-background:new 0 0 512.009 512.009;" xml:space="preserve">
<path style="fill:#4CAF50;" d="M255.944,15.93C114.618,15.902,0.028,130.446,0,271.772C-0.018,364.089,49.689,449.26,130.077,494.65
	c2.456,1.415,5.38,1.777,8.107,1.003c2.708-0.756,5.008-2.55,6.4-4.992l78.933-139.499c2.895-5.126,1.091-11.628-4.032-14.528
	c-35.954-20.194-48.73-65.712-28.535-101.666s65.712-48.73,101.666-28.535s48.73,65.712,28.535,101.666
	c-6.712,11.951-16.585,21.823-28.535,28.535c-5.123,2.9-6.927,9.402-4.032,14.528l78.72,139.499c1.388,2.45,3.689,4.253,6.4,5.013
	c0.929,0.269,1.891,0.406,2.859,0.405c1.84-0.002,3.648-0.48,5.248-1.387c123.087-69.444,166.573-225.522,97.129-348.61
	C433.548,65.629,348.319,15.884,255.944,15.93z"/>
<g>
</g>
<g>
</g>
<g>
</g>
<g>
</g>
<g>
</g>
<g>
</g>
<g>
</g>
<g>
</g>
<g>
</g>
<g>
</g>
<g>
</g>
<g>
</g>
<g>
</g>
<g>
</g>
<g>
</g>
</svg>
