<svg height="512" viewBox="0 0 58 58" width="512" xmlns="http://www.w3.org/2000/svg"><g id="Page-1" fill="none" fill-rule="evenodd"><g id="125---Play" fill-rule="nonzero"><circle id="Oval" cx="29" cy="29" fill="#7ed09e" r="29"/><circle id="Oval" cx="29" cy="29" fill="#4fba6f" r="25"/><g fill="#fff"><path id="Shape" d="m29 51c-.5522847 0-1-.4477153-1-1s.4477153-1 1-1c1.6045354.001111 3.2033704-.1909373 4.762-.572.3522894-.1009376.731571-.0010928.9884992.2602195.2569282.2613122.3503421.6422287.243459.9927601-.1068831.3505313-.3969401.6145209-.7559582.6880204-1.7142783.4201741-3.4729801.6320376-5.238.631z"/><path id="Shape" d="m39 48.463c-.457222.0001552-.856317-.3098156-.9693177-.7528537-.1130007-.4430382.0888768-.9062922.4903177-1.1251463 1.0044678-.5465586 1.9608804-1.1771419 2.859-1.885.2802749-.2216833.6575261-.2770023.9896469-.1451188s.5686541.4309332.6205.7845c.051846.3535668-.088872.7079355-.3691469.9296188-.9873511.7789592-2.038758 1.4730952-3.143 2.075-.1467626.0793056-.3111854.1202394-.478.119z"/><path id="Shape" d="m46 42.315c-.3755788-.0005957-.7191545-.2115871-.8895606-.5462833s-.1389049-.736653.0815606-1.0407167c2.4834188-3.4053189 3.81726-7.5133257 3.808-11.728 0-.5522847.4477153-1 1-1s1 .4477153 1 1c.0093772 4.6361142-1.4586179 9.1546388-4.191 12.9-.1875508.2600184-.4883998.4143476-.809.415z"/></g><path id="Shape" d="m29 55c-14.3527783-.0159821-25.98401786-11.6472217-26-26-.00698492-3.5798739.73241089-7.1218897 2.171-10.4.12802221-.3490447.43911608-.598253.80768661-.6470143s.73376711.1109747.94815238.4147195c.21438527.3037447.24256445.7013501.07316101 1.0322948-1.32629731 3.0263257-2.00744034 6.2958123-2 9.6 0 9.7070939 5.8474123 18.4583648 14.8155976 22.1731088 8.9681854 3.714744 19.2910132 1.6614059 26.1549651-5.2025461 6.863952-6.8639519 8.9172901-17.1867797 5.2025461-26.1549651-3.714744-8.9681853-12.4660149-14.8155976-22.1731088-14.8155976-3.3042355-.00790911-6.5738177.67325385-9.6 2-.3294859.1561038-.7178184.12051515-1.0134419-.09287666-.2956236-.21339182-.4516812-.57076379-.4072679-.93264332.0444134-.36187952.2822581-.67090802.6207098-.80648002 3.2781885-1.43800748 6.8202912-2.17639967 10.4-2.168 14.3594035 0 26 11.6405965 26 26s-11.6405965 26-26 26z" fill="#24ae5f"/><path id="Shape" d="m9.8 14c-.38811192-.0002099-.74105034-.2249685-.90538835-.5765705-.16433802-.3516019-.11039148-.7665377.13838835-1.0644295.66156482-.7915677 1.3687674-1.543847 2.118-2.253.2597321-.24544146.6306759-.33367331.9731005-.23145945.3424246.10221385.6043075.37934465.687.72699995.0826925.3476554-.0263684.713018-.2861005.9584595-.6922525.6550136-1.3456963 1.3498611-1.957 2.081-.1901006.2276288-.4714311.3591361-.768.359z" fill="#24ae5f"/><path id="Shape" d="m26.011 20.329 10.064 6.853c.5812343.4232852.9250374 1.0989703.9250374 1.818s-.3438031 1.3947148-.9250374 1.818l-10.064 6.853c-.6300132.3951384-1.4288479.4018212-2.0653837.0172784-.6365358-.3845429-1.0022747-1.0947659-.9456163-1.8362784v-13.7c-.0583104-.7422155.3067807-1.4539002.9436509-1.8394911.6368701-.3855909 1.4367113-.3792106 2.0673491.0164911z" fill="#fff"/></g></g></svg>