<svg height="512" viewBox="0 0 512 512" width="512" xmlns="http://www.w3.org/2000/svg"><g id="flat"><path d="m360 488h-40a8 8 0 0 1 0-16h40a8 8 0 0 1 0 16z" fill="#ea9d2d"/><path d="m352 408h-24a8 8 0 0 1 0-16h24a8 8 0 0 1 0 16z" fill="#ea9d2d"/><path d="m280 248h98.264a20 20 0 0 1 10.6 3.04l59.136 36.96-8 32-57.044-32.35-18.956-12.397z" fill="#55300b"/><path d="m348.838 164.744 19.162-28.744 24 40z" fill="#027e2a"/><path d="m328 152 64 24-32 72-64-24z" fill="#02a437"/><path d="m208 192-48 104h32l24-48z" fill="#fdc9a6"/><path d="m192.914 224.686 31.086 23.314 16-24-24-40-8 8z" fill="#2cbff4"/><path d="m112 296h208a48 48 0 0 1 48 48 48 48 0 0 1 -48 48h-208a0 0 0 0 1 0 0v-96a0 0 0 0 1 0 0z" fill="#d32b39"/><rect fill="#fdc9a6" height="80" rx="32" width="64" x="208" y="88"/><path d="m272 112h-48l-16 16-11.631-29.078a22.362 22.362 0 0 1 2.156-20.71 22.363 22.363 0 0 1 25.675-8.812l7.8 2.6 6.274-12.549a23.634 23.634 0 0 1 29.917-11.374 23.635 23.635 0 0 1 13.948 28.437z" fill="#683b0d"/><path d="m224 168-16 24v33.39a28 28 0 0 0 2.956 12.522l29.044 58.088 40-48-16-24-8-56z" fill="#0296e5"/><path d="m232 224 90.325 20.844a17.822 17.822 0 0 0 19.951-9.4 17.825 17.825 0 0 0 -11.253-25.168l-67.023-18.276z" fill="#fdc9a6"/><path d="m264 192-4.326-17.3a19.4 19.4 0 0 0 -18.823-14.7 19.4 19.4 0 0 0 -18.824 24.109l9.973 39.891z" fill="#2cbff4"/><path d="m280 248 86.536 21.634a20 20 0 0 1 13.426 11.28l28.038 63.086-24 24-32-72h-112z" fill="#683b0d"/><path d="m448 288 16-8 24 8-16 40-32-8z" fill="#cbcbcb"/><path d="m408 344 32 16v24l-48 8-8-24z" fill="#cbcbcb"/><path d="m111 312h-24a8 8 0 0 1 0-16h24a8 8 0 0 1 0 16z" fill="#d32b39"/><path d="m128 400h-40a8 8 0 0 1 0-16h40a8 8 0 0 1 0 16z" fill="#d32b39"/><path d="m112 328h208a16 16 0 0 1 16 16 16 16 0 0 1 -16 16h-208z" fill="#cbcbcb"/><path d="m80 392h208a48 48 0 0 1 48 48 48 48 0 0 1 -48 48h-208a0 0 0 0 1 0 0v-96a0 0 0 0 1 0 0z" fill="#ea9d2d" transform="matrix(-1 0 0 -1 416 880)"/><path d="m336 424h-208a16 16 0 0 0 -16 16 16 16 0 0 0 16 16h208z" fill="#cbcbcb"/><path d="m137.373 174.627-1.373 1.373h-48l-1.373-1.373a77.254 77.254 0 0 1 -22.627-54.627 48 48 0 0 1 48-48 48 48 0 0 1 48 48 77.254 77.254 0 0 1 -22.627 54.627z" fill="#ea9d2d"/><path d="m133.657 114.343a8 8 0 0 0 -11.314 0l-10.343 10.344-10.343-10.344a8 8 0 0 0 -11.314 11.314l13.657 13.657v36.686a8 8 0 0 0 16 0v-36.686l13.657-13.657a8 8 0 0 0 0-11.314z" fill="#c38325"/><g fill="#fbb540"><path d="m112 48a8 8 0 0 1 -8-8v-16a8 8 0 0 1 16 0v16a8 8 0 0 1 -8 8z"/><path d="m76.008 57.647a8 8 0 0 1 -6.936-4l-8-13.856a8 8 0 1 1 13.856-8l8 13.856a8 8 0 0 1 -6.92 12z"/><path d="m49.639 84a7.957 7.957 0 0 1 -3.993-1.073l-13.856-8a8 8 0 0 1 8-13.856l13.856 8a8 8 0 0 1 -4.007 14.929z"/><path d="m40 120h-16a8 8 0 0 1 0-16h16a8 8 0 0 1 0 16z"/><path d="m35.8 164a8 8 0 0 1 -4.008-14.929l13.856-8a8 8 0 0 1 8 13.856l-13.856 8a7.969 7.969 0 0 1 -3.992 1.073z"/><path d="m147.992 57.647a8 8 0 0 1 -6.92-12l8-13.856a8 8 0 1 1 13.856 8l-8 13.856a8 8 0 0 1 -6.936 4z"/></g><path d="m136 208-16 16h-16l-16-16v-32h48z" fill="#cbcbcb"/><path d="m88 208h48l-16 16h-16z" fill="#eaeae8"/></g></svg>