<svg id="Capa_1" enable-background="new 0 0 512 512" height="512" viewBox="0 0 512 512" width="512" xmlns="http://www.w3.org/2000/svg"><g><g><path d="m207.951 229.816-10.026-17.365c3.897 6.75 12.666 8.935 19.302 4.675 6.215-3.989 7.953-12.33 4.261-18.726l-37.751-65.387c-1.495-2.589.832-5.71 3.741-5.017l19.909 4.75c8.222 1.962 16.397-3.372 17.929-11.665.967-5.231-2.067-10.385-7.062-12.213l-9.134-3.341c-5.285-1.933-10.21-4.759-14.474-8.433-5.613-4.837-15.704-11.786-29.439-14.294-7.389-1.349-13.829-5.839-17.585-12.343l-11.962-20.719-8.608-6.426-72.377 41.787-6.123 14.931 14.515 25.141c3.748 6.491 6.3 13.642 7.167 21.087.925 7.947 3.467 15.619 7.465 22.545l39.978 69.244c3.693 6.396 11.785 9.061 18.348 5.673 7.007-3.617 9.5-12.304 5.602-19.054l8.592 14.881c3.693 6.396 11.785 9.062 18.347 5.674 7.007-3.617 9.5-12.304 5.603-19.054l10.22 17.701c3.897 6.75 12.667 8.935 19.302 4.675 6.215-3.99 7.952-12.331 4.26-18.727z" fill="#ffcebe"/><g><path d="m104.556 184.821c-3.864-6.693-6.367-14.083-7.366-21.745-1.004-7.702-3.382-15.16-7.266-21.887l-9.756-16.898c-3.002-5.199-3.426-11.495-1.148-17.05 1.628-3.971 4.528-7.289 8.244-9.434l57.109-32.972-8.716-15.096-8.608-6.426-72.374 41.786-6.123 14.931 14.515 25.141c3.748 6.491 6.3 13.642 7.167 21.087.925 7.947 3.467 15.619 7.465 22.545l39.978 69.244c3.693 6.396 11.785 9.061 18.348 5.673.665-.343 1.276-.746 1.859-1.175z" fill="#ffb1a0"/></g><g fill="#ffb1a0"><path d="m166.372 142.55c-3.647 2.106-4.897 6.769-2.791 10.416l34.345 59.487c3.898 6.749 12.666 8.932 19.301 4.673.249-.16.478-.337.712-.51l-41.151-71.275c-2.105-3.647-6.769-4.897-10.416-2.791z"/><path d="m168.566 245.22c.666-.344 1.277-.746 1.859-1.175l-41.15-71.273c-2.106-3.647-6.769-4.897-10.416-2.791s-4.897 6.769-2.791 10.416l25.558 44.269 8.592 14.881c3.693 6.396 11.786 9.061 18.348 5.673z"/><path d="m139.825 166.681 44.566 77.19c3.899 6.747 12.665 8.93 19.3 4.671.249-.16.478-.337.712-.51l-51.37-88.976c-2.106-3.647-6.769-4.897-10.416-2.791-3.648 2.106-4.897 6.769-2.792 10.416z"/></g></g><g><path d="m275.698 144.194c-.371 7.876 5.905 14.379 13.7 14.379h-17.183c-7.385 0-13.74 5.676-14.087 13.052-.371 7.877 5.905 14.379 13.7 14.379h-20.439c-7.795 0-14.071 6.502-13.7 14.378.348 7.377 6.702 13.053 14.088 13.053h20.052c-7.795 0-14.071 6.502-13.7 14.379.347 7.377 6.702 13.053 14.087 13.053h75.503c2.99 0 4.529 3.576 2.474 5.748l-14.068 14.867c-5.81 6.14-5.278 15.886 1.137 21.36 4.047 3.453 10.027 3.402 14.108-.01l7.46-6.24c4.317-3.61 9.227-6.463 14.54-8.318 6.995-2.442 18.059-7.707 27.098-18.349 4.862-5.724 11.971-9.057 19.482-9.057h23.925l7.881-5.702v-82.606l-7.881-12.275h-29.031c-7.496 0-14.964-1.365-21.845-4.336-7.345-3.172-15.26-4.808-23.257-4.808h-79.956c-7.387 0-13.741 5.676-14.088 13.053z" fill="#ffcebe"/><g fill="#ffb1a0"><g><path d="m447.298 226.217h-23.925c-7.489 0-14.599 3.297-19.441 9.01-8.915 10.519-19.813 15.796-26.832 18.288-5.408 1.92-10.445 4.745-14.847 8.426l-7.108 5.945c-3.765 3.149-9.177 3.72-13.339 1.12-4.858-3.034-3.858-7.785-.973-12.503l-4.71 4.977c-5.81 6.14-5.278 15.886 1.137 21.36 4.047 3.453 10.027 3.402 14.108-.01l7.46-6.24c4.317-3.61 9.227-6.463 14.54-8.318 6.995-2.442 18.059-7.707 27.098-18.349 4.862-5.724 11.971-9.057 19.482-9.057h23.925l7.881-5.702v-12.171z"/><path d="m342.687 226.217h-67.047c-5.959 0-11.242-3.698-13.245-9-2.779 2.639-4.464 6.419-4.267 10.597.347 7.377 6.702 13.053 14.087 13.053h75.503c2.02 0 3.373 1.634 3.407 3.363 5.916-7.038.968-18.013-8.438-18.013z"/></g><g><path d="m275.698 144.194c-.371 7.874 5.901 14.374 13.693 14.379h51.123c4.211 0 7.625-3.414 7.625-7.625s-3.414-7.625-7.625-7.625h-64.73c-.033.289-.073.576-.086.871z"/><path d="m348.139 205.811c0-4.211-3.414-7.625-7.625-7.625h-102.738c-.08.719-.123 1.449-.088 2.197.348 7.376 6.701 13.051 14.085 13.053h88.741c4.211 0 7.625-3.414 7.625-7.625z"/><path d="m348.139 178.38c0-4.211-3.414-7.625-7.625-7.625h-82.301c-.033.289-.072.576-.086.871-.371 7.876 5.904 14.378 13.698 14.379h68.689c4.211 0 7.625-3.414 7.625-7.625z"/></g></g></g><path d="m450.946 252.089h40.063c3.652 0 6.612-2.96 6.612-6.612v-109.8c0-3.652-2.96-6.612-6.612-6.612h-40.063c-3.907 0-7.074 3.167-7.074 7.073v108.878c.001 3.906 3.168 7.073 7.074 7.073z" fill="#ffe02f"/><path d="m491.009 208.518h-40.063c-3.906 0-7.073-3.167-7.073-7.074v43.571c0 3.907 3.167 7.074 7.073 7.074h40.063c3.652 0 6.612-2.96 6.612-6.612v-43.571c0 3.651-2.96 6.612-6.612 6.612z" fill="#fbc700"/><g><path d="m290.503 314.662c-6.636-4.259-15.405-2.075-19.302 4.675l8.592-14.881c3.693-6.396 1.955-14.737-4.26-18.726-6.636-4.259-15.405-2.076-19.303 4.675l10.22-17.701c3.897-6.751 1.405-15.437-5.602-19.054-6.563-3.388-14.655-.722-18.348 5.674l-10.026 17.365c3.898-6.751 1.405-15.437-5.602-19.054-6.563-3.388-14.655-.722-18.348 5.674l-37.751 65.387c-1.495 2.589-5.362 2.134-6.215-.731l-5.841-19.617c-2.412-8.101-11.118-12.514-19.067-9.695-5.013 1.778-7.96 6.983-7.045 12.223l1.674 9.581c.968 5.544.984 11.222-.066 16.751-1.382 7.279-2.355 19.493 2.341 32.642 2.526 7.073 1.858 14.896-1.897 21.4l-11.962 20.719.998 9.677 71.537 41.302 14.571-.688 14.515-25.141c3.748-6.491 8.664-12.277 14.678-16.75 6.42-4.775 11.794-10.812 15.792-17.737l39.978-69.244c3.693-6.395 1.955-14.736-4.261-18.726z" fill="#ffcebe"/><g fill="#ffb1a0"><g><path d="m133.669 422.261 11.962-20.719c3.744-6.485 4.445-14.292 1.918-21.341-4.652-12.981-3.774-25.057-2.422-32.381 1.041-5.643 1.114-11.418.126-17.071l-1.595-9.128c-.845-4.835 1.366-9.808 5.699-12.113 5.057-2.69 8.671.551 11.314 5.408l-1.955-6.567c-2.412-8.101-11.118-12.514-19.067-9.695-5.013 1.778-7.96 6.983-7.045 12.223l1.674 9.581c.968 5.544.984 11.222-.066 16.751-1.382 7.279-2.355 19.493 2.341 32.642 2.526 7.073 1.858 14.896-1.897 21.4l-11.962 20.719.998 9.677 10.541 6.086z"/><path d="m185.975 331.665 33.523-58.064c2.98-5.161 8.823-7.887 14.417-6.971-.896-3.726-3.327-7.076-7.044-8.994-6.563-3.388-14.655-.722-18.348 5.674l-37.751 65.387c-1.01 1.75-3.102 2.105-4.616 1.269 3.137 8.643 15.116 9.845 19.819 1.699z"/></g><g><path d="m290.503 314.662c-6.634-4.258-15.399-2.076-19.299 4.669l-25.562 44.274c-2.106 3.647-.856 8.31 2.791 10.416s8.31.856 10.416-2.791l32.365-56.058c-.233-.173-.462-.35-.711-.51z"/><path d="m200.921 346.59c3.647 2.106 8.31.856 10.416-2.791l51.369-88.974c-.582-.429-1.193-.831-1.859-1.175-6.562-3.387-14.653-.723-18.347 5.672l-44.37 76.852c-2.105 3.647-.856 8.31 2.791 10.416z"/><path d="m224.677 360.306c3.647 2.106 8.31.856 10.416-2.791l41.15-71.275c-.234-.173-.463-.35-.711-.51-6.635-4.259-15.403-2.076-19.302 4.673l-34.344 59.486c-2.105 3.647-.856 8.311 2.791 10.417z"/></g></g></g><path d="m109.44 412.485-20.032 34.695c-1.826 3.163-.742 7.207 2.42 9.032l95.09 54.9c3.163 1.826 7.207.742 9.032-2.42l20.031-34.695c1.953-3.383.794-7.709-2.589-9.663l-94.291-54.439c-3.382-1.952-7.708-.793-9.661 2.59z" fill="#ff5595"/><path d="m127.142 468.966 20.031-34.695c1.953-3.383 6.279-4.542 9.663-2.589l-37.733-21.785c-3.383-1.953-7.709-.794-9.663 2.589l-20.032 34.694c-1.826 3.163-.742 7.206 2.42 9.032l37.734 21.786c-3.162-1.826-4.246-5.869-2.42-9.032z" fill="#ff3581"/><path d="m141.839 38.003-20.031-34.696c-1.826-3.163-5.87-4.246-9.032-2.42l-95.09 54.9c-3.163 1.826-4.246 5.87-2.42 9.032l20.031 34.695c1.953 3.383 6.279 4.542 9.663 2.589l94.291-54.439c3.383-1.952 4.542-6.278 2.588-9.661z" fill="#60b9fe"/><path d="m73.863 78.682-21.287-36.87c-1.07-1.853-1.195-3.99-.533-5.861l-34.357 19.836c-3.163 1.826-4.246 5.87-2.421 9.033l20.032 34.695c1.953 3.383 6.279 4.542 9.662 2.589l34.226-19.76c-2.156-.347-4.145-1.623-5.322-3.662z" fill="#1ca8ff"/></g></svg>