<svg id="Capa_1" enable-background="new 0 0 512 512" height="512" viewBox="0 0 512 512" width="512" xmlns="http://www.w3.org/2000/svg"><g><g><path d="m184.476 345.313h292.347c15.786 0 28.583-12.797 28.583-28.583v-253.298c0-15.786-12.797-28.583-28.583-28.583h-292.347c-15.786 0-28.583 12.797-28.583 28.583v253.298c0 15.786 12.797 28.583 28.583 28.583z" fill="#6ec17d"/><g><path d="m61.393 412.83s-23.557 7.02-31.639-1.062 0-28.815 0-28.815l40.02-16.377z" fill="#f1d0a5"/><path d="m49.884 415.183c-7.18.91-15.84.88-20.13-3.41-8.08-8.08 0-28.82 0-28.82l11.43-4.68 7.19 4.68s-12.22 20.61 1.51 32.23z" fill="#f1b986"/><path d="m196.924 259.207c40.387 13.86 83.451 22.475 83.451 22.475l1.657 21.537c-25.513 15.352-93.774 8.124-93.774 8.124s14.805 23.574 18.002 55.235l1.308 16.375s4.97 56.671-10.934 97.426h-49.701s12.463-57.778-12.238-82.48c-24.701 24.701-12.238 82.48-12.238 82.48h-49.701c-15.904-40.755-10.934-97.426-10.934-97.426h-32.068c0-89.667 36.407-119.283 42.714-123.745" fill="#dfeaef"/><path d="m161.376 262.47 13.306 32.858-39.989-10.232-39.989 10.232 13.306-32.858" fill="#b4d0d5"/><path d="m196.638 480.375-3.579 7.238-46.121-7.238s12.455-57.771-12.246-82.481c-24.7 24.71-12.236 82.481-12.236 82.481h-49.7c-15.902-40.752-10.93-97.427-10.93-97.427 0-5.61.528-11.189 1.305-16.371h143.131l1.305 16.371c.001 0 4.973 56.675-10.929 97.427z" fill="#665e66"/><path d="m89.474 259.207c-14.816 19.997-41.808 64.646-41.101 123.741h-18.623c0-89.665 36.408-119.278 42.715-123.741z" fill="#b4d0d5"/><path d="m87.461 480.375-9.081 11.703-5.636-11.703c-15.902-40.752-10.93-97.427-10.93-97.427 0-5.61.528-11.189 1.305-16.371h23.585c-5.002 18.713-11.189 57.562.757 113.798z" fill="#454045"/><path d="m159.899 480.375h-12.973s12.465-57.771-12.236-82.481c25.209 0 38.172 43.403 25.209 82.481z" fill="#454045"/><path d="m57.846 503.78h64.611v-23.402h-41.21c-12.924.001-23.401 10.478-23.401 23.402z" fill="#aa593d"/><path d="m96.167 480.375c-12.923 0-23.405 10.482-23.405 23.405h-14.916c0-12.923 10.472-23.405 23.395-23.405z" fill="#934d36"/><path d="m211.545 503.78h-64.611v-23.402h41.21c12.923.001 23.401 10.478 23.401 23.402z" fill="#aa593d"/><path d="m317.576 292.93v8.03c0 6.21-5.03 11.24-11.24 11.24h-14.72c-6.21 0-11.24-5.03-11.24-11.24v-19.28h25.96c6.21 0 11.24 5.04 11.24 11.25z" fill="#f1d0a5"/><path d="m299.806 312.2h-8.19c-6.21 0-11.24-5.03-11.24-11.24v-19.28h18.6c-3.74 11.33-1.76 22.61.83 30.52z" fill="#f1b986"/><path d="m238.283 188.601h.145c12.46 0 22.557-10.105 22.557-22.557 0-12.46-10.096-22.565-22.557-22.565-.162 0-.324 0-.486.009h-206.554c-.162-.009-.324-.009-.486-.009-12.46 0-22.557 10.105-22.557 22.565 0 12.452 10.096 22.557 22.557 22.557h.145" fill="#f1b986"/><path d="m233.094 84.575c-65.619-6.362-131.238-6.362-196.858 0-5.092 40.8-6.592 81.599-4.499 122.399 1.523 29.7 25.289 53.34 54.995 54.743 31.956 1.509 63.911 1.509 95.867 0 29.706-1.402 53.472-25.043 54.995-54.743 2.092-40.8.592-81.599-4.5-122.399z" fill="#f1d0a5"/><path d="m36.24 84.569c32.804-3.182 65.618-4.767 98.431-4.767-16.612 0-33.225 1.605-49.837 4.816-2.584 41.193-3.338 82.387-2.281 123.57.695 27.107 10.602 49.211 23.602 54.252-6.471-.176-12.951-.421-19.422-.724-29.701-1.4-53.469-25.041-54.996-54.742-2.085-40.802-.588-81.604 4.503-122.405z" fill="#f1b986"/><path d="m189.32 118.503c-37.717 14.57-91.292 8.145-118.292-18.855 0 0-6.412 43.839-39.631 43.839l-14.486 4.872c-38.69-151.867 43.832-111.289 43.832-111.289 7.791-15.098 19.139-21.349 30.996-22.857 1.044-.129 2.088-.226 3.138-.29.084 0 .168-.006.251-.013 8.351-.445 16.806 1.25 24.32 3.667 2.616.844 5.123 1.772 7.469 2.732 9.44 3.86 16.316 8.197 17.76 9.125.187.129.284.193.284.193 8.493-11.238 16.593-21.407 25.499-21.407 3.654 0 6.18 1.398 7.875 3.634 6.425 8.422 1.147 28.676.722 30.267l-.019.071c.006-.013.013-.039.026-.071l.045-.116c1.141-2.874 13.9-33.786 36.782-33.786 1.443 0 2.739.135 3.892.393 17.057 3.77 3.705 33.605 2.236 36.763l-.039.09c-.039.077-.064.135-.077.161.728-.928 29.294-37.195 41.989-20.556.006.013.006.013.013.019 12.802 16.878-36.888 78.85-74.585 93.414z" fill="#f4dd45"/><g fill="#ecc32e"><path d="m263.89 25.071h-.006c-6.418-6.412-28.65 23.856-42.002 20.576l.097-.18c-.039.077-.064.135-.077.161.727-.928 29.293-37.195 41.988-20.557z"/><path d="m219.781 8.613c-9.642-2.19-18.58 16.163-23.63 29.192-2.442 6.3-10.006 8.829-15.749 5.269l-1.379-.855.013-.026.019-.071h.006l.045-.116c1.141-2.874 13.9-33.786 36.782-33.786 1.444 0 2.739.135 3.893.393z"/><path d="m91.736 14.213c-27.593 4.865-38.02 68.126-20.711 85.434 0 0-6.412 43.839-39.631 43.839l-14.486 4.872c-38.689-151.866 43.833-111.288 43.833-111.288 7.79-15.098 19.138-21.349 30.995-22.857z"/><path d="m178.333 11.855c-9.698-9.698-16.162 40.037-37.994 48.001-21.832 7.965-23.875-2.217-23.875-2.217v-.006c10.749-3.976 19.822-16.542 28.489-28.012.006.006.006.006.006.006.264-.354.528-.702.793-1.05.329-.445.67-.889 1.005-1.327 7.849-10.252 15.427-19.029 23.701-19.029 3.654-.001 6.18 1.397 7.875 3.634z"/></g><g fill="#dfeaef"><circle cx="92.415" cy="166.625" r="23.737"/><circle cx="176.915" cy="166.625" r="23.737"/></g></g></g><g><path d="m159.382 199.522c-3.73-1.769-8.186-.181-9.955 3.547-2.603 5.486-8.208 9.031-14.277 9.031s-11.674-3.545-14.277-9.031c-1.77-3.728-6.227-5.317-9.955-3.547-3.728 1.769-5.316 6.227-3.547 9.955 5.065 10.672 15.968 17.568 27.779 17.568s22.715-6.896 27.779-17.568c1.769-3.728.181-8.185-3.547-9.955z"/><path d="m463.239 57.377h-36.172c-3.267 0-6.156 2.123-7.131 5.241l-16.218 51.838-4.565-16.955c-.879-3.263-3.837-5.53-7.216-5.53h-18.267c-4.127 0-7.472 3.346-7.472 7.472s3.346 7.472 7.472 7.472h12.541l9.753 36.229c.864 3.209 3.743 5.462 7.065 5.528.051.001.101.001.152.001 3.26 0 6.153-2.118 7.13-5.241l22.249-71.111h30.68c4.127 0 7.472-3.346 7.472-7.472s-3.346-7.472-7.473-7.472z"/><path d="m474.157 112.041c.057-.244.101-.492.133-.741l.282-2.204c.04-.314.06-.63.06-.947 0-12.16-9.893-22.052-22.052-22.052-10.514 0-19.615 7.48-21.639 17.786-.795 4.05 1.843 7.977 5.892 8.773 4.044.796 7.976-1.843 8.772-5.892.651-3.315 3.584-5.722 6.974-5.722 3.787 0 6.892 2.978 7.096 6.715l-.158 1.233c-.685 2.655-2.346 5.912-4.821 9.448-9.014 12.879-14.391 19.919-17.28 23.702-3.556 4.656-5.515 7.221-4.26 11.301.744 2.42 2.574 4.275 5.017 5.09 1.006.335 1.858.62 12.949.62 4.375 0 10.345-.044 18.544-.147 4.126-.052 7.43-3.439 7.378-7.566s-3.434-7.402-7.566-7.378c-4.997.063-10.271.107-14.884.124 3.055-4.115 7.098-9.679 12.346-17.176 3.717-5.309 6.145-10.345 7.217-14.967z"/><path d="m476.053 28.191h-203.114c-.559-2.544-1.59-4.817-3.104-6.802-3.615-4.737-8.549-7.256-14.271-7.285-6.525-.027-13.45 3.452-19.612 7.997-.034-4.392-.892-8.636-3.111-12.166-2.374-3.776-7.211-8.277-16.773-8.277-11.741 0-21.084 6.194-28.07 13.628-.733-2.586-1.824-4.994-3.387-7.05-3.273-4.304-8.046-6.579-13.805-6.579-10.713 0-19.053 8.52-27.278 18.973-3.403-1.889-7.945-4.194-13.27-6.372-2.637-1.079-5.32-2.061-7.984-2.92-9.62-3.094-18.675-4.438-26.915-4.002-.026.001-.065.004-.104.007-.069.002-.138.006-.207.01-1.189.073-2.396.184-3.612.335-13.82 1.759-25.166 8.948-33.145 20.916-9.497-3.126-27.493-6.674-41.455 4.654-19.692 15.976-22.085 52.998-7.308 113.082-4.786 5.311-7.706 12.338-7.706 20.034 0 14.054 9.733 25.871 22.811 29.081.137 4.034.297 8.064.504 12.079 1.207 23.575 14.715 43.651 34.284 54.062-6.328 6.81-14.44 17.804-21.355 34.414-1.586 3.81.216 8.184 4.027 9.77.938.391 1.911.576 2.869.576 2.927 0 5.706-1.731 6.901-4.603 8.212-19.726 18.052-30.057 22.955-34.321 3.942.94 8.027 1.527 12.221 1.724 3.527.166 7.062.307 10.598.437l-9.227 22.785c-1.058 2.613-.556 5.599 1.3 7.722 1.854 2.123 4.748 3.019 7.478 2.322l30.52-7.809v64.083h-54.854c2.091-9.607 4.604-16.41 4.646-16.522 1.445-3.863-.512-8.167-4.375-9.615-3.865-1.449-8.172.509-9.62 4.373-.19.507-4.681 12.59-7.015 28.13-.511 3.409-.867 6.727-1.095 9.949h-17.208c.403-16.709 2.168-32.211 5.264-46.177.893-4.029-1.649-8.019-5.678-8.912-4.031-.893-8.02 1.649-8.912 5.678-3.701 16.7-5.606 35.37-5.691 55.494-2.242 6.241-7.911 25.302 2.171 35.385 4.655 4.654 11.783 6.067 18.725 6.067 3.797 0 7.533-.425 10.782-.971.974 17.234 3.614 37.579 9.868 55.779-8.185 5.539-13.576 14.909-13.576 25.515 0 4.127 3.346 7.472 7.472 7.472h64.374c4.127 0 7.472-3.346 7.472-7.472v-23.315c0-.54-.06-1.066-.169-1.574-2.846-13.197-6.65-48.094 4.887-68.292 11.495 20.163 7.726 55.054 4.897 68.273-.112.514-.174 1.046-.174 1.593v23.315c0 4.127 3.346 7.472 7.472 7.472h64.374c4.127 0 7.472-3.346 7.472-7.472 0-10.603-5.388-19.971-13.57-25.511 14.133-41.125 9.777-93.241 9.582-95.47l-1.305-16.31c-.004-.051-.009-.102-.014-.153-.453-4.499-1.132-8.83-1.959-12.97h191.557c4.127 0 7.472-3.346 7.472-7.472s-3.346-7.472-7.472-7.472h-195.368c-2.177-7.002-4.608-13.068-6.792-17.887 6.396.376 14.566.688 23.425.68 22.949-.058 40.682-2.419 52.917-7.012 2.015 2.229 4.553 3.965 7.426 5.02l-2.293 8.03c-1.133 3.968 1.166 8.104 5.134 9.237.685.196 1.376.289 2.055.289 3.252 0 6.244-2.14 7.182-5.423l3.134-10.976h5.86c10.298 0 18.676-8.378 18.676-18.676v-8.003c0-7.927-4.972-14.698-11.955-17.405l42.042-147.316c1.133-3.968-1.166-8.104-5.135-9.236-3.968-1.132-8.103 1.166-9.236 5.135l-42.849 150.146h-16.644c-4.771-.982-33.254-6.983-63.924-16.319 16.132-11.097 26.924-29.302 28.002-50.262.206-4.021.367-8.049.503-12.079 13.077-3.21 22.809-15.027 22.809-29.08 0-14.219-9.959-26.147-23.263-29.193-.78-15.857-2.096-31.693-3.941-47.442 14.795-15.863 26.454-33.428 30.461-46.604h204.32c11.581 0 21.002 9.422 21.002 21.002v252.369c0 11.581-9.421 21.003-21.002 21.003h-42.654c-4.127 0-7.472 3.346-7.472 7.472s3.346 7.472 7.472 7.472h42.653c19.821 0 35.947-16.126 35.947-35.947v-252.368c0-19.821-16.126-35.947-35.947-35.947zm-248.363 74.798c1.236 12.341 2.139 24.727 2.709 37.123l-24.399 14.949c-4.681-11.277-15.805-19.229-28.755-19.229-14.585 0-26.853 10.087-30.209 23.649h-23.772c-3.356-13.562-15.624-23.649-30.209-23.649-12.95 0-24.074 7.953-28.755 19.23l-13.418-8.222c13.197-7.009 21.152-20.947 25.24-33.166 13.182 9.469 30.301 16.048 49.456 18.866 23.226 3.417 46.916 1.087 66.711-6.561 11.635-4.496 23.964-12.878 35.401-22.99zm-34.268 63.964c0 8.92-7.257 16.177-16.177 16.177s-16.177-7.257-16.177-16.177 7.257-16.177 16.177-16.177c8.92.001 16.177 7.257 16.177 16.177zm-84.19 0c0 8.92-7.257 16.177-16.177 16.177s-16.177-7.257-16.177-16.177 7.257-16.177 16.177-16.177 16.177 7.257 16.177 16.177zm-92.465-.578c0-5.625 3.112-10.53 7.7-13.1-.227 8.675-.29 17.379-.194 26.075-4.48-2.599-7.506-7.435-7.506-12.975zm91.047 117.903 5.762-14.229c4.707.099 9.418.16 14.132.194v8.944zm48.964-14.23 5.763 14.23-19.888-5.089v-8.946c4.711-.035 9.42-.096 14.125-.195zm-120.87 135.863c-2.094-2.094-1.637-9.261.148-15.955h18.583c-.185 4.227-.336 9.899-.278 16.52-8.84 1.75-16.553 1.334-18.453-.565zm32.053 89.486c2.668-4.966 7.909-8.353 13.926-8.369h33.627v8.369zm86.884 0v-8.369h33.628c6.018.016 11.258 3.403 13.926 8.369zm1.37-23.316c.854-6.104 1.749-14.773 1.764-24.374.039-25.24-5.853-43.951-17.514-55.612-1.401-1.402-3.302-2.189-5.284-2.189s-3.883.787-5.284 2.189c-11.662 11.662-17.554 30.372-17.515 55.612.015 9.601.91 18.27 1.764 24.374l-35.448.001c-12.633-37.237-8.483-95.372-8.193-98.441h129.074l.76 9.492c.046.526 4.234 50.894-8.676 88.949zm153.704-171.288c0 2.057-1.674 3.731-3.731 3.731h-11.582c-.042 0-.084-.001-.126 0h-2.954c-2.057 0-3.73-1.674-3.73-3.731v-11.733h18.392c2.057 0 3.731 1.673 3.731 3.731zm-37.067-13.15v11.521c-10.287 3.998-26.698 6.131-47.975 6.194-19.164.054-35.386-1.635-35.548-1.652-2.84-.301-5.601 1.051-7.117 3.473-1.515 2.422-1.515 5.5-.002 7.923.125.201 11.367 18.455 15.705 43.595h-55.262v-64.082l30.514 7.808c.613.157 1.235.234 1.852.233 2.126 0 4.188-.909 5.626-2.555 1.855-2.123 2.358-5.109 1.3-7.722l-9.228-22.787c3.517-.129 7.032-.269 10.539-.434 4.741-.223 9.336-.96 13.749-2.126 30.747 10.379 62.836 17.78 75.847 20.611zm-42.612-80.874c-1.329 25.84-21.829 46.243-47.687 47.46-31.457 1.485-63.355 1.484-94.811 0-25.859-1.218-46.357-21.62-47.68-47.46-.844-16.396-1.084-32.986-.739-49.484l22.924 14.046c2.135 15.095 15.133 26.745 30.808 26.745 14.585 0 26.853-10.087 30.209-23.65h23.772c3.356 13.563 15.624 23.65 30.209 23.65 15.675 0 28.673-11.65 30.808-26.745l22.915-14.04c.349 16.529.113 33.048-.728 49.478zm23.292-40.394c0 5.54-3.026 10.377-7.505 12.975.093-8.685.027-17.382-.203-26.08 4.593 2.569 7.708 7.477 7.708 13.105zm4.095-128.183c-6.301 22.317-42.421 62.911-70.725 73.847-36.899 14.257-86.19 6.585-109.876-17.102-1.998-1.998-4.952-2.698-7.635-1.809-2.682.889-4.634 3.215-5.042 6.012-.054.373-5.758 37.29-32.095 37.29-.009 0-.017.001-.026.001-.153-.003-.306-.01-.459-.01-3.106 0-6.103.476-8.923 1.358-7.398-31.833-14.387-78.389 3.362-92.88 12.019-9.811 31.816-.405 31.994-.318 3.654 1.797 8.071.339 9.938-3.279 5.791-11.223 14.029-17.368 25.157-18.783.845-.104 1.701-.185 2.547-.239.128-.005.257-.012.385-.021 6.396-.33 13.621.784 21.465 3.306 2.296.741 4.619 1.591 6.908 2.528 3.748 1.533 7.066 3.147 9.753 4.569-6.485 8.425-13.144 16.195-19.938 18.703-3.871 1.43-5.851 5.727-4.421 9.598s5.728 5.851 9.598 4.421c12.239-4.52 21.514-16.82 30.485-28.716 6.741-8.939 15.13-20.065 20.729-20.065 1.391 0 1.677.376 1.907.677 2.856 3.747 1.504 16.19-.568 23.724-1.068 3.849 1.081 7.858 4.878 9.099 3.798 1.243 7.899-.723 9.312-4.459.11-.29 11.494-29.042 29.733-29.042 2.196 0 3.582.432 4.119 1.284 2.42 3.84-.629 16.415-4.875 25.291-1.656 3.442-.449 7.578 2.796 9.59 3.247 2.013 7.487 1.253 9.833-1.76 6.904-8.865 20.412-21.96 27.519-21.96h.029c.736.004 1.477.114 2.463 1.405.625.822.915 3.341-.327 7.74z"/></g></g></svg>